# xmcd
#
# Track frame offsets: 
#        150
#        16856
#        33755
#        47202
#        65606
#        77122
#        90142
#        108725
#        122888
#        151179
#        175230
#        194081
#
# Disc length: 2713 seconds
#
# Revision: 3
# Processed by: cddbd v1.5.2PL0 Copyright (c) Steve Scherf et al.
# Submitted via: ExactAudioCopy v1.3
#
DISCID=960a970c
DTITLE=Various Artist - The Crown Jewels - A Tribute To Queen
DYEAR=2005
DGENRE=Hard Rock
TTITLE0=Grey DeLisle - Bohemian Rhapsody
TTITLE1=James LaBrie - Bruce Bouillet - One Vision
TTITLE2=Jason Mraz - Good Old - Fashioned Lover Boy
TTITLE3=Talisman - Tie Your Mother Down
TTITLE4=Enuff Z'Nuff - Stone Cold Crazy
TTITLE5=The Vandals - Don't Stop Me Now
TTITLE6=Robin McAuley and Chris Impellitteri - I Want It All
TTITLE7=Hayseed Dixie - Fat Bottomed Girls
TTITLE8=Anthrax - It's Late
TTITLE9=Batfish Boys - Another One Bites The Dust
TTITLE10=Jeff Scott Soto and Bruce Kullick - Save Me
TTITLE11=Jeff Scott Soto - We Will Rock You
EXTD=
EXTT0=
EXTT1=
EXTT2=
EXTT3=
EXTT4=
EXTT5=
EXTT6=
EXTT7=
EXTT8=
EXTT9=
EXTT10=
EXTT11=
PLAYORDER=
